<svg width="380" height="90" viewBox="0 0 380 90" fill="none" xmlns="http://www.w3.org/2000/svg">
<path d="M36.2 80.4C29 80.4 22.8 78.9 17.6 75.9C12.4 72.9 8.4 68.7667 5.6 63.5C2.8 58.1667 1.4 52 1.4 45C1.4 39.8 2.23333 35.0333 3.9 30.7C5.56667 26.3667 7.93333 22.6333 11 19.5C14.0667 16.3 17.7333 13.8667 22 12.2C26.2667 10.4667 31 9.6 36.2 9.6C44.3333 9.6 51.0667 11.4667 56.4 15.2C61.7333 18.8667 65.6 24.3333 68 31.6L52 38.4C50.4667 34.8 48.4333 32.0333 45.9 30.1C43.3667 28.1667 40.1333 27.2 36.2 27.2C33 27.2 30.1667 27.9 27.7 29.3C25.2333 30.7 23.3 32.7333 21.9 35.4C20.5667 38.0667 19.9 41.2667 19.9 45C19.9 48.7333 20.5667 51.9333 21.9 54.6C23.3 57.2667 25.2333 59.3 27.7 60.7C30.1667 62.0333 33 62.7 36.2 62.7C40.1333 62.7 43.3667 61.7667 45.9 59.9C48.4333 57.9667 50.4667 55.2 52 51.6L68 58.4C65.6 65.6667 61.7333 71.1667 56.4 74.9C51.0667 78.5667 44.3333 80.4 36.2 80.4ZM110.457 79V10.9H128.657V79H110.457ZM70.557 79V10.9H88.657V79H70.557ZM82.157 54.4V36.8H116.857V54.4H82.157Z" fill="#0066FF"/>
<rect x="239" y="70" width="50" height="50" rx="25" transform="rotate(-180 239 70)" stroke="#0066FF" stroke-width="18"/>
<path d="M168 20C181.807 20 193 31.1929 193 45C193 58.8071 181.807 70 168 70H143V45C143 31.1929 154.193 20 168 20Z" stroke="#0066FF" stroke-width="18"/>
<path d="M265.9 45H276.7C279.767 45 282.067 44.3 283.6 42.9C285.2 41.5 286 39.4667 286 36.8C286 34.0667 285.2 32 283.6 30.6C282.067 29.2 279.767 28.5 276.7 28.5H265.8L270.2 24.6V79H252.1V10.9H277.3C282.7 10.9 287.433 11.9 291.5 13.9C295.567 15.8333 298.733 18.7333 301 22.6C303.267 26.4 304.4 31.1333 304.4 36.8C304.4 42.4667 303.267 47.2333 301 51.1C298.733 54.9 295.567 57.8 291.5 59.8C287.433 61.7333 282.7 62.7 277.3 62.7H265.9V45ZM325.524 79H307.424V10.9H325.524V79ZM374.694 79H331.694V10.9H349.794V69.9L344.194 61.4H374.694V79Z" fill="#0066FF"/>
</svg>
